PathFileType	4	(X/Y/Z)	Walk10.trc
DataRate	CameraRate	NumFrames	NumMarkers	Units	OrigDataRate	OrigDataStartFrame	OrigNumFrames
200.000000	200.000000	8	57	mm	200.000000	707	868
Frame#	Times		RCAR		LMT5		RFHD		LTB3		RUA1		LTB2		RASI		LTB4		RElbow		RFA1		LACR1		LLFC		LUA1		LTH1		STRN		RACR1		RTH4		LToe		RTH3		RWRU		LCAR		RBHD		LASI		LTH3		LFHD		RLFC		CLAV		RBack		RTH2		C7		LTH4		LTH2		LElbow		RTB3		RTH1		LWRR		RTB4		RMT1		LFA1		LPSI		RLMAL		LWRU		LTB1		RPSI		RTB1		RTB2		LElbowM		RWRR		LBHD		LMT1		T10		RCAL		RMMAL		LMMAL		LLMAL		LCAL		RElbowM
			X1	Y1	Z1	X2	Y2	Z2	X3	Y3	Z3	X4	Y4	Z4	X5	Y5	Z5	X6	Y6	Z6	X7	Y7	Z7	X8	Y8	Z8	X9	Y9	Z9	X10	Y10	Z10	X11	Y11	Z11	X12	Y12	Z12	X13	Y13	Z13	X14	Y14	Z14	X15	Y15	Z15	X16	Y16	Z16	X17	Y17	Z17	X18	Y18	Z18	X19	Y19	Z19	X20	Y20	Z20	X21	Y21	Z21	X22	Y22	Z22	X23	Y23	Z23	X24	Y24	Z24	X25	Y25	Z25	X26	Y26	Z26	X27	Y27	Z27	X28	Y28	Z28	X29	Y29	Z29	X30	Y30	Z30	X31	Y31	Z31	X32	Y32	Z32	X33	Y33	Z33	X34	Y34	Z34	X35	Y35	Z35	X36	Y36	Z36	X37	Y37	Z37	X38	Y38	Z38	X39	Y39	Z39	X40	Y40	Z40	X41	Y41	Z41	X42	Y42	Z42	X43	Y43	Z43	X44	Y44	Z44	X45	Y45	Z45	X46	Y46	Z46	X47	Y47	Z47	X48	Y48	Z48	X49	Y49	Z49	X50	Y50	Z50	X51	Y51	Z51	X52	Y52	Z52	X53	Y53	Z53	X54	Y54	Z54	X55	Y55	Z55	X56	Y56	Z56	X57	Y57	Z57

707	3.535	430.92	780.19	353.4	225.73	92.491	-96.038	522.03	1584.4	61.933	314.44	230.63	-61.48	374.97	1190.7	276.5	367.7	304.58	-109.36	503.89	986.65	175.69	383.44	281.49	-54.962	325.97	1071.6	307.28	336.91	925.51	328.99	381.68	1383.7	-127.54	491.25	476.31	-116.81	377.52	1202.8	-222.62	418.37	747.14	-182.24	507.67	1239.2	27.192	383.97	1372	182.32	429.56	668.48	217.59	296.1	34.379	-62.358	431.1	586.42	195.71	364.07	818.59	340.01	456.77	788.67	-239.55	369.06	1559.2	108.9	495.67	961.1	-116.61	465.5	588.57	-139.1	504.46	1585.9	-30.907	428.37	499.36	168.58	448.5	1341.2	24.35	258.22	1319.1	137.53	486.36	675.27	200.54	310.13	1420.3	36.893	441.76	669.44	-155.23	497.31	689.17	-150.85	346.6	1077	-250.37	440.11	172.54	86.058	431.55	752.39	243.66	435.4	837.67	-203.32	451.77	256.98	85.204	507.54	35.03	48.136	363.52	938.26	-260.6	251.86	962.05	-14.295	391.59	61.129	106.68	396.17	826.25	-263.12	454.41	332.18	-52.703	252.49	973.3	74.553	462.65	343.61	91.377	428.24	259.37	143.64	304.17	1051.9	-181.3	421.84	828.72	299.16	345.97	1553.3	-32.158	254.54	76.424	-26.867	238.89	1152.8	21.693	328.83	27.241	69.602	407.79	70.645	25.083	219.98	176.65	-4.2919	204.22	190.1	-87.697	149.01	212.06	-45.682	316.04	1038.2	214.04
708	3.54	440.7	781.83	354.55	244.42	90.079	-95.073	527.84	1584.9	62.206	329.11	229.13	-60.08	381.32	1191.3	277.09	381.13	303.84	-108.11	509.24	986.64	176.21	397.15	281.25	-53.582	333.01	1072.1	308.14	345.2	926.1	329.99	387.43	1383.9	-127.37	501.79	477.78	-115.83	382.21	1202.9	-222.31	424.78	747.4	-181.66	513.49	1239.5	26.872	389.99	1372.4	182.57	433.47	668.39	217.52	316.64	34.31	-61.167	434.26	586.35	195.61	373.4	819.43	341.01	457.07	787.63	-240.89	374.9	1559.4	109.18	501.53	961.85	-116.04	474.53	589.65	-138.33	510.26	1586.3	-30.639	430.31	499.33	168.61	454.42	1341.4	24.512	264.11	1319.7	137.98	490.25	674.75	200.24	316.09	1420.7	37.227	449.52	670.11	-154.6	504.79	690.69	-150.77	350.3	1077.3	-249.92	440.47	172.5	86.099	436.26	752.24	243.65	436.75	836.88	-204.39	452.35	256.91	85.272	507.55	35.019	48.162	365.6	938.55	-260.75	257.44	962.65	-13.945	391.64	61.196	106.66	396.86	826.23	-263.91	467.17	333.21	-51.336	258.11	973.76	74.901	463.49	343.51	91.471	428.82	259.35	143.7	308.1	1052.5	-180.67	431.09	830.07	300.15	351.81	1553.5	-31.879	273.56	74.659	-25.842	244.63	1153.3	22.333	328.82	27.356	69.587	407.82	70.672	25.05	235.68	173.46	-2.9851	219.79	186.42	-86.398	164.25	206.41	-44.57	323.13	1038.5	214.95
709	3.545	450.47	783.46	355.66	263.36	87.534	-94.032	533.63	1585.3	62.462	343.91	227.49	-58.644	387.64	1191.9	277.69	394.59	302.98	-106.85	514.58	986.62	176.73	410.89	280.93	-52.176	340.01	1072.6	308.99	353.48	926.64	330.96	393.17	1384.1	-127.19	512.21	479.23	-114.83	386.9	1202.9	-222	431.21	747.62	-181.14	519.32	1239.7	26.55	396.02	1372.8	182.81	437.4	668.29	217.43	337.36	34.218	-59.849	437.4	586.27	195.51	382.73	820.25	341.98	457.39	786.64	-242.27	380.74	1559.6	109.45	507.43	962.53	-115.44	483.48	590.71	-137.57	516.04	1586.7	-30.386	432.19	499.29	168.66	460.34	1341.6	24.666	270.02	1320.2	138.43	494.15	674.2	199.9	322.06	1421.1	37.562	457.24	670.75	-154	512.23	692.16	-150.67	353.99	1077.6	-249.47	440.82	172.47	86.161	441.01	752.07	243.64	438.11	836.1	-205.48	452.93	256.83	85.377	507.57	35.009	48.193	367.69	938.83	-260.91	263.02	963.18	-13.657	391.7	61.263	106.63	397.56	826.22	-264.7	479.89	334.21	-49.948	263.73	974.15	75.193	464.34	343.4	91.61	429.35	259.34	143.78	312.03	1053	-180.05	440.32	831.41	301.11	357.64	1553.7	-31.614	292.78	72.813	-24.725	250.37	1153.6	22.967	328.8	27.479	69.567	407.85	70.693	25.002	251.57	170.07	-1.6576	235.56	182.5	-85.085	179.55	200.53	-43.472	330.24	1038.7	215.85
710	3.55	460.22	785.08	356.73	282.53	84.875	-92.919	539.42	1585.7	62.701	358.82	225.73	-57.174	393.93	1192.5	278.3	408.09	302.01	-105.57	519.9	986.57	177.25	424.65	280.52	-50.747	346.97	1073	309.81	361.74	927.15	331.9	398.91	1384.2	-127.02	522.48	480.66	-113.82	391.58	1202.9	-221.69	437.66	747.8	-180.68	525.14	1239.8	26.232	402.07	1373.2	183.05	441.33	668.18	217.32	358.24	34.11	-58.42	440.51	586.19	195.4	392.04	821.05	342.91	457.74	785.69	-243.68	386.56	1559.8	109.71	513.36	963.14	-114.81	492.33	591.76	-136.81	521.82	1587	-30.15	434.03	499.25	168.71	466.25	1341.8	24.814	275.95	1320.6	138.9	498.03	673.61	199.53	328.02	1421.4	37.897	464.92	671.38	-153.41	519.62	693.57	-150.56	357.67	1077.9	-249.03	441.15	172.43	86.243	445.81	751.87	243.61	439.49	835.33	-206.59	453.51	256.76	85.513	507.59	34.999	48.228	369.77	939.11	-261.06	268.6	963.64	-13.43	391.76	61.329	106.6	398.28	826.22	-265.49	492.57	335.18	-48.542	269.34	974.48	75.429	465.2	343.29	91.789	429.84	259.32	143.88	315.97	1053.5	-179.42	449.54	832.74	302.04	363.46	1553.8	-31.362	312.19	70.901	-23.526	256.1	1154	23.592	328.79	27.611	69.541	407.88	70.709	24.941	267.65	166.5	-0.31013	251.56	178.35	-83.763	194.82	194.48	-42.396	337.35	1038.9	216.71
711	3.555	469.95	786.68	357.76	301.92	82.12	-91.741	545.2	1586.1	62.924	373.86	223.85	-55.678	400.2	1193	278.9	421.62	300.94	-104.28	525.22	986.49	177.78	438.44	280.04	-49.3	353.9	1073.4	310.61	369.98	927.61	332.81	404.65	1384.2	-126.85	532.6	482.06	-112.8	396.26	1202.9	-221.38	444.13	747.94	-180.26	530.95	1239.9	25.924	408.13	1373.5	183.28	445.25	668.05	217.21	379.27	33.993	-56.898	443.58	586.09	195.28	401.34	821.83	343.79	458.11	784.8	-245.12	392.39	1559.9	109.95	519.32	963.66	-114.15	501.08	592.79	-136.05	527.59	1587.3	-29.93	435.82	499.21	168.77	472.15	1341.9	24.957	281.9	1320.9	139.37	501.89	672.98	199.15	333.98	1421.6	38.232	472.55	671.97	-152.85	526.95	694.92	-150.43	361.34	1078.1	-248.59	441.49	172.38	86.342	450.63	751.63	243.58	440.9	834.57	-207.72	454.09	256.68	85.677	507.62	34.989	48.265	371.86	939.38	-261.22	274.18	964.02	-13.263	391.81	61.394	106.57	399.01	826.22	-266.28	505.21	336.12	-47.121	274.94	974.74	75.608	466.06	343.18	92.002	430.3	259.3	143.99	319.92	1054	-178.8	458.74	834.05	302.93	369.28	1553.8	-31.125	331.78	68.935	-22.254	261.83	1154.3	24.207	328.79	27.752	69.51	407.92	70.72	24.865	283.92	162.76	1.056	267.77	174.01	-82.432	209.94	188.34	-41.347	344.47	1039	217.55
712	3.56	479.65	788.26	358.74	321.52	79.287	-90.507	550.97	1586.4	63.131	389.02	221.87	-54.159	406.44	1193.4	279.51	435.19	299.77	-102.98	530.52	986.38	178.3	452.26	279.48	-47.838	360.8	1073.7	311.39	378.2	928.04	333.68	410.39	1384.2	-126.68	542.55	483.42	-111.78	400.94	1202.8	-221.07	450.61	748.04	-179.9	536.76	1240	25.629	414.21	1373.7	183.5	449.16	667.9	217.1	400.43	33.874	-55.302	446.61	585.99	195.16	410.63	822.58	344.64	458.52	783.95	-246.58	398.2	1559.9	110.17	525.29	964.08	-113.47	509.72	593.8	-135.29	533.35	1587.6	-29.725	437.56	499.17	168.85	478.04	1341.9	25.094	287.87	1321.3	139.85	505.72	672.32	198.75	339.93	1421.8	38.566	480.12	672.55	-152.3	534.23	696.2	-150.29	365	1078.3	-248.16	441.82	172.34	86.456	455.47	751.37	243.55	442.31	833.82	-208.87	454.67	256.6	85.864	507.64	34.979	48.305	373.96	939.65	-261.38	279.76	964.33	-13.155	391.88	61.458	106.53	399.76	826.23	-267.06	517.78	337.04	-45.687	280.53	974.94	75.732	466.92	343.06	92.242	430.74	259.28	144.11	323.89	1054.4	-178.18	467.93	835.34	303.78	375.09	1553.8	-30.899	351.55	66.929	-20.922	267.55	1154.5	24.811	328.79	27.903	69.475	407.96	70.727	24.776	300.39	158.87	2.4384	284.2	169.48	-81.094	224.76	182.2	-40.333	351.59	1039.1	218.37
713	3.565	489.32	789.82	359.67	341.32	76.393	-89.228	556.73	1586.6	63.322	404.3	219.8	-52.622	412.66	1193.9	280.11	448.79	298.51	-101.68	535.82	986.24	178.82	466.09	278.87	-46.366	367.66	1074	312.15	386.39	928.43	334.51	416.11	1384.2	-126.52	552.34	484.75	-110.74	405.61	1202.7	-220.77	457.1	748.12	-179.58	542.56	1240	25.354	420.3	1373.9	183.71	453.06	667.73	217	421.69	33.762	-53.657	449.59	585.88	195.05	419.89	823.3	345.44	458.96	783.14	-248.06	404.01	1559.9	110.38	531.27	964.41	-112.78	518.24	594.78	-134.53	539.1	1587.7	-29.536	439.26	499.12	168.94	483.92	1341.9	25.227	293.87	1321.5	140.33	509.53	671.61	198.36	345.89	1421.9	38.897	487.63	673.1	-151.77	541.44	697.43	-150.12	368.66	1078.4	-247.74	442.14	172.29	86.58	460.32	751.07	243.52	443.75	833.09	-210.03	455.25	256.51	86.069	507.67	34.97	48.344	376.07	939.9	-261.53	285.35	964.56	-13.103	391.94	61.519	106.48	400.53	826.24	-267.83	530.29	337.92	-44.245	286.13	975.06	75.801	467.8	342.93	92.502	431.15	259.26	144.23	327.87	1054.7	-177.55	477.1	836.61	304.59	380.9	1553.7	-30.687	371.47	64.897	-19.545	273.27	1154.7	25.402	328.79	28.063	69.436	408	70.73	24.677	317.06	154.84	3.8339	300.86	164.8	-79.75	239.13	176.16	-39.362	358.69	1039.2	219.16
714	3.57	498.96	791.35	360.56	361.3	73.457	-87.915	562.49	1586.8	63.496	419.7	217.65	-51.074	418.88	1194.2	280.7	462.43	297.17	-100.38	541.12	986.06	179.34	479.95	278.2	-44.888	374.48	1074.2	312.89	394.55	928.78	335.31	421.84	1384.1	-126.36	561.94	486.04	-109.71	410.27	1202.5	-220.48	463.58	748.16	-179.31	548.35	1240	25.102	426.4	1374	183.91	456.92	667.55	216.9	443.05	33.664	-51.985	452.52	585.77	194.95	429.13	823.99	346.18	459.44	782.38	-249.55	409.82	1559.8	110.58	537.26	964.64	-112.07	526.64	595.73	-133.78	544.84	1587.9	-29.364	440.93	499.08	169.04	489.79	1341.9	25.355	299.89	1321.7	140.82	513.29	670.87	197.98	351.84	1422	39.224	495.06	673.62	-151.26	548.59	698.59	-149.94	372.31	1078.5	-247.32	442.47	172.24	86.712	465.17	750.74	243.5	445.21	832.36	-211.19	455.84	256.43	86.286	507.7	34.96	48.381	378.2	940.15	-261.68	290.94	964.71	-13.104	392	61.58	106.43	401.32	826.26	-268.59	542.72	338.78	-42.797	291.71	975.12	75.818	468.69	342.79	92.776	431.57	259.24	144.36	331.87	1055	-176.93	486.26	837.87	305.37	386.7	1553.6	-30.487	391.56	62.851	-18.137	278.99	1154.8	25.977	328.81	28.233	69.394	408.05	70.732	24.569	333.95	150.7	5.2385	317.75	159.99	-78.4	252.84	170.33	-38.444	365.79	1039.2	219.93
